<?xml version="1.0" standalone="no"?>
<!DOCTYPE svg PUBLIC "-//W3C//DTD SVG 20010904//EN"
 "http://www.w3.org/TR/2001/REC-SVG-20010904/DTD/svg10.dtd">
<svg version="1.0" xmlns="http://www.w3.org/2000/svg"
 width="224.000000pt" height="225.000000pt" viewBox="0 0 224.000000 225.000000"
 preserveAspectRatio="xMidYMid meet">

<g transform="translate(0.000000,225.000000) scale(0.100000,-0.100000)"
fill="#000000" stroke="none">
<path d="M1106 2142 c-10 -16 9 -135 22 -140 9 -3 12 16 12 72 0 60 -3 76 -14
76 -8 0 -17 -4 -20 -8z"/>
<path d="M1396 2020 c-43 -62 -51 -90 -27 -90 5 0 33 31 64 69 40 50 52 72 44
80 -20 20 -33 11 -81 -59z"/>
<path d="M732 2072 c-10 -7 -5 -24 19 -75 17 -37 35 -64 40 -61 13 8 11 20
-12 85 -22 61 -25 64 -47 51z"/>
<path d="M910 2025 c0 -30 5 -55 10 -55 6 0 10 25 10 55 0 30 -4 55 -10 55 -5
0 -10 -25 -10 -55z"/>
<path d="M1250 2021 c-28 -56 -14 -74 17 -21 17 29 22 45 15 52 -7 7 -17 -3
-32 -31z"/>
<path d="M625 1991 c-8 -14 54 -111 71 -111 11 0 6 15 -16 60 -29 58 -42 70
-55 51z"/>
<path d="M1535 1926 c-22 -19 -34 -35 -28 -39 6 -4 27 8 48 27 22 19 34 35 28
39 -6 4 -27 -8 -48 -27z"/>
<path d="M510 1907 c0 -7 16 -28 35 -47 41 -40 47 -24 9 26 -27 35 -44 43 -44
21z"/>
<path d="M930 1877 c-259 -77 -401 -291 -384 -577 6 -95 4 -111 -16 -157 -12
-28 -33 -61 -46 -74 -23 -22 -31 -63 -16 -85 4 -6 22 -19 40 -28 25 -13 32
-22 27 -34 -16 -37 -17 -53 -5 -67 6 -8 9 -23 5 -34 -4 -13 1 -27 16 -42 19
-19 20 -26 11 -54 -28 -92 86 -137 288 -115 43 4 45 3 67 -35 12 -22 37 -82
54 -135 27 -77 33 -111 33 -182 l1 -88 359 0 358 0 -28 37 c-16 21 -57 80 -91
131 -161 243 -211 434 -154 584 6 15 29 56 51 92 65 103 82 163 88 301 2 71 0
144 -7 176 -40 191 -197 345 -402 394 -88 20 -160 18 -249 -8z m243 -32 c144
-30 253 -112 309 -231 114 -244 -78 -510 -382 -531 -179 -13 -356 82 -433 232
-28 54 -31 69 -32 150 0 82 3 96 33 157 68 138 226 233 397 237 22 0 71 -6
108 -14z"/>
<path d="M864 1710 c-26 -13 -49 -35 -64 -61 -19 -35 -22 -51 -18 -113 5 -76
47 -178 71 -173 6 1 11 -5 9 -14 -3 -19 128 -145 180 -173 l35 -19 44 30 c102
71 179 157 130 145 -7 -1 -10 2 -6 8 5 8 11 8 21 0 11 -10 19 -2 44 37 81 126
75 262 -12 325 -45 32 -134 33 -175 2 -15 -12 -27 -29 -27 -38 1 -9 -2 -13 -7
-10 -5 3 -9 -3 -9 -13 -1 -11 -8 -5 -20 18 -13 25 -32 42 -60 53 -53 21 -86
20 -136 -4z"/>
<path d="M1603 1818 c-29 -18 -53 -39 -53 -45 0 -19 9 -16 67 17 36 21 51 35
47 45 -4 8 -7 15 -8 15 0 0 -25 -15 -53 -32z"/>
<path d="M375 1779 c-4 -11 -5 -22 -3 -23 16 -13 145 -76 155 -76 32 0 7 30
-61 73 -40 26 -76 47 -79 47 -3 0 -9 -9 -12 -21z"/>
<path d="M1670 1717 c-64 -32 -73 -38 -63 -48 5 -5 32 0 63 12 30 11 61 22 67
24 15 5 6 35 -11 34 -6 0 -31 -10 -56 -22z"/>
<path d="M410 1610 c0 -8 70 -50 85 -50 16 0 0 21 -31 39 -39 23 -54 26 -54
11z"/>
<path d="M1647 1554 c-14 -14 6 -24 49 -24 32 0 44 4 44 15 0 11 -11 15 -43
15 -24 0 -47 -3 -50 -6z"/>
<path d="M320 1450 c0 -18 5 -19 63 -14 75 7 87 10 87 24 0 6 -30 10 -75 10
-68 0 -75 -2 -75 -20z"/>
<path d="M1660 1437 c0 -11 18 -18 63 -26 81 -14 77 -14 77 9 0 16 -7 20 -32
20 -18 0 -50 3 -70 6 -30 5 -38 3 -38 -9z"/>
</g>
</svg>
